<svg width="321" height="65" viewBox="0 0 321 65" fill="none" xmlns="http://www.w3.org/2000/svg">
<path d="M13.5086 24.1066C17.3068 16.6661 23.333 12.9144 31.5653 12.7413C32.4918 12.7219 33.0689 12.4404 33.6533 11.7477C34.7386 10.4613 35.9455 9.27743 37.2377 7.90674C36.7596 7.79385 36.4146 7.6781 36.0607 7.63385C24.8729 6.23504 14.4528 12.0736 9.83906 22.3581C9.52844 23.0505 9.19854 23.3465 8.41455 23.3258C6.28673 23.2697 4.15645 23.3065 1.88025 23.3065C2.87027 19.7996 4.40419 16.7102 6.43504 13.871C15.128 1.71812 30.5965 -2.88545 44.5546 2.46011C45.1263 2.67902 45.9321 2.66186 46.5078 2.44028C63.9472 -4.27157 83.3402 4.98973 89.0006 22.7663C90.3164 26.8986 90.813 32.1971 90.2139 36.0491C86.7151 36.0491 83.1942 36.0956 79.6758 36.0218C78.5637 35.9985 78.1584 36.3162 77.8798 37.4297C75.8312 45.6148 68.604 51.5767 60.1918 52.0205C58.7829 52.0948 57.7766 52.4565 56.8812 53.6057C55.9903 54.7492 54.8016 55.6606 53.5645 56.8452C54.1263 57.0107 54.3877 57.1232 54.6597 57.1626C65.7184 58.7636 76.5702 52.8181 81.0992 42.621C81.4826 41.7577 81.9102 41.4755 82.8184 41.5046C84.8597 41.5701 86.9045 41.5251 89.2953 41.5251C88.4446 43.5288 87.7839 45.399 86.8869 47.1479C79.4045 61.7353 61.891 68.3395 46.6019 62.4256C45.9559 62.1757 45.0605 62.177 44.4031 62.4081C33.0607 66.3948 22.4214 65.0784 12.9225 57.6724C3.76927 50.5358 -0.113289 40.8664 0.679585 29.308C0.68802 29.185 0.752924 29.0659 0.842592 28.7846C3.27446 28.7846 5.74242 28.7889 8.21036 28.7828C9.38549 28.7799 10.8373 29.1707 11.6553 28.6233C12.4232 28.1094 12.5155 26.5922 12.9165 25.5208C13.0841 25.073 13.2811 24.6362 13.5086 24.1066ZM67.4154 36.0574C63.2786 36.0603 59.1409 36.0113 55.0057 36.0909C53.3009 36.1238 52.0186 35.5424 50.8445 34.3422C47.3731 30.7942 43.8651 27.2809 40.3205 23.8059C35.3102 18.894 27.7117 18.7736 22.7942 23.488C21.2995 24.9209 20.2078 26.6064 19.5804 28.7734C20.1609 28.7734 20.5832 28.7737 21.0055 28.7733C25.7083 28.7693 30.4119 28.813 35.1135 28.7362C36.8549 28.7078 38.1924 29.2535 39.4056 30.4964C42.8726 34.0486 46.3753 37.5679 49.9317 41.0305C53.7952 44.7921 58.3596 45.7897 63.4035 43.9088C67.0192 42.5606 69.3872 39.9039 70.675 36.0572C69.562 36.0572 68.6189 36.0572 67.4154 36.0574ZM44.985 18.0307C45.3745 17.7804 45.7988 17.571 46.1486 17.2739C55.2935 9.50481 69.6644 11.8733 75.7061 22.2398C76.8698 24.2365 77.5889 26.4923 78.5382 28.6865C79.8999 28.6865 81.4148 28.6865 82.9345 28.6865C82.0898 20.8361 76.0386 11.8132 65.8675 8.58187C56.1047 5.48028 45.9761 8.93735 40.678 14.8154C42.0563 15.8568 43.4362 16.8995 44.985 18.0307ZM30.7241 57.3273C38.6738 58.098 46.7762 54.2543 50.0113 50.2239C48.3535 49.0677 46.6942 47.9106 45.019 46.7423C44.7973 46.9289 44.5991 47.0958 44.4008 47.2626C38.968 51.8332 32.7513 53.3018 25.967 51.3575C18.9128 49.3359 14.3901 44.5736 12.328 37.4986C12.1803 36.9917 11.8313 36.21 11.4833 36.1563C10.3628 35.9836 9.19884 36.092 8.02833 36.092C9.65226 47.4857 18.7439 56.006 30.7241 57.3273ZM69.6493 26.2924C65.0673 18.4318 55.1411 18.4942 50.2066 23.5889C51.0722 24.3635 52.0924 25.0286 52.783 25.9428C54.5424 28.2718 56.7263 29.0381 59.6394 28.8219C63.2588 28.5534 66.9133 28.7575 70.7516 28.7575C70.3615 27.8735 70.0504 27.1687 69.6493 26.2924ZM24.922 43.0312C30.0424 45.9156 36.6952 45.1808 39.8766 41.2705C38.2442 39.6676 36.6215 38.0299 34.9355 36.4602C34.6384 36.1836 34.0775 36.0875 33.637 36.0839C30.284 36.0567 26.9307 36.0735 23.5775 36.0759C22.2924 36.0769 21.0074 36.0761 19.5388 36.0761C20.5421 39.119 22.2632 41.3156 24.922 43.0312Z" fill="#DB1F48"/>
<path d="M110.953 6.86633H115.426V29.5701H110.953V6.86633ZM151.485 30.4955L134.272 14.9484L135.599 15.6887L135.691 29.5701H131.157V5.97175H131.342L148.185 21.4572L147.198 21.0253L147.105 6.86633H151.609V30.4955H151.485ZM167.327 6.86633H181.517V11.185H171.8V16.3365H180.221V20.6551H171.8V29.5701H167.327V6.86633ZM195.694 6.86633H200.167V29.5701H195.694V6.86633ZM236.227 30.4955L219.014 14.9484L220.34 15.6887L220.433 29.5701H215.898V5.97175H216.083L232.926 21.4572L231.939 21.0253L231.846 6.86633H236.35V30.4955H236.227ZM252.068 6.86633H256.541V29.5701H252.068V6.86633ZM270.73 6.86633H286.03V11.185H280.508V29.5701H276.035V11.185H270.73V6.86633ZM306.11 22.506L297.75 6.86633H303.272L309.133 18.6501L307.806 18.7426L313.575 6.86633H319.097L310.583 22.506V29.5701H306.11V22.506Z" fill="#004369"/>
<path d="M117.832 35.0995C119.703 35.0995 121.287 35.4182 122.582 36.0558C123.878 36.6727 124.865 37.557 125.544 38.7086C126.222 39.8397 126.562 41.1867 126.562 42.7497C126.562 43.6751 126.418 44.6108 126.13 45.5568C125.863 46.4822 125.42 47.3254 124.803 48.0863C124.207 48.8472 123.395 49.4641 122.367 49.9371C121.359 50.3895 120.115 50.6158 118.634 50.6158H115.426V57.8032H110.953V35.0995H117.832ZM118.603 46.2663C119.282 46.2663 119.847 46.1532 120.3 45.9269C120.752 45.6802 121.102 45.382 121.349 45.0324C121.616 44.6622 121.801 44.2817 121.904 43.891C122.027 43.5003 122.089 43.161 122.089 42.873C122.089 42.6468 122.048 42.3486 121.966 41.9785C121.904 41.5877 121.76 41.197 121.534 40.8063C121.307 40.4155 120.958 40.0865 120.485 39.8191C120.032 39.5518 119.415 39.4181 118.634 39.4181H115.426V46.2663H118.603ZM135.585 57.8032L145.827 34.2049H146.074L156.315 57.8032H151.133L144.593 41.2073L147.832 38.9863L139.997 57.8032H135.585ZM142.588 49.5978H149.405L150.978 53.3612H141.2L142.588 49.5978ZM172.285 50.7392L163.925 35.0995H169.447L175.308 46.8832L173.981 46.9758L179.75 35.0995H185.272L176.758 50.7392V57.8032H172.285V50.7392Z" fill="#004369"/>
</svg>
