<svg width="321" height="65" viewBox="0 0 321 65" fill="none" xmlns="http://www.w3.org/2000/svg">
<path d="M13.8263 24.0293C17.6321 16.574 23.6703 12.8149 31.919 12.6415C32.8474 12.6219 33.4256 12.3399 34.0111 11.6459C35.0986 10.3569 36.308 9.17066 37.6027 7.79724C37.1236 7.68412 36.778 7.56814 36.4234 7.5238C25.2132 6.1222 14.7725 11.9723 10.1495 22.2774C9.83826 22.9712 9.5077 23.2678 8.72215 23.247C6.59009 23.1908 4.45556 23.2277 2.17483 23.2277C3.16682 19.7137 4.7038 16.6182 6.7387 13.7734C15.449 1.59628 30.9483 -3.01645 44.9342 2.33975C45.507 2.5591 46.3144 2.54191 46.8913 2.31989C64.3654 -4.40534 83.7971 4.87442 89.4687 22.6864C90.7872 26.827 91.2847 32.136 90.6844 35.9956C87.1787 35.9956 83.6508 36.0422 80.1254 35.9683C79.011 35.9449 78.605 36.2633 78.3257 37.379C76.2731 45.5804 69.0315 51.5542 60.6025 51.9989C59.1909 52.0733 58.1826 52.4357 57.2853 53.5872C56.3927 54.733 55.2017 55.6463 53.9621 56.8332C54.525 56.999 54.7869 57.1118 55.0594 57.1512C66.1401 58.7554 77.0136 52.7981 81.5516 42.5807C81.9358 41.7156 82.3642 41.4329 83.2742 41.4621C85.3196 41.5276 87.3685 41.4826 89.7641 41.4826C88.9116 43.4902 88.2497 45.3642 87.3508 47.1166C79.8535 61.7331 62.3051 68.3504 46.9856 62.4247C46.3382 62.1743 45.4411 62.1756 44.7824 62.4071C33.4174 66.4018 22.7569 65.0828 13.2391 57.662C4.06762 50.5113 0.177324 40.8226 0.971777 29.2412C0.980229 29.1179 1.04526 28.9986 1.13511 28.7167C3.57182 28.7167 6.0447 28.721 8.51755 28.7149C9.69503 28.7119 11.1498 29.1035 11.9694 28.555C12.7388 28.0401 12.8313 26.52 13.2331 25.4464C13.401 24.9977 13.5984 24.56 13.8263 24.0293ZM67.8405 36.004C63.6955 36.0068 59.5496 35.9577 55.4061 36.0376C53.698 36.0705 52.4131 35.4879 51.2366 34.2854C47.7583 30.7303 44.2433 27.2099 40.6916 23.7281C35.6714 18.8064 28.0578 18.6857 23.1305 23.4095C21.6328 24.8453 20.5389 26.5341 19.9102 28.7054C20.4919 28.7054 20.915 28.7057 21.3382 28.7054C26.0503 28.7014 30.7633 28.7452 35.4743 28.6682C37.2192 28.6397 38.5593 29.1865 39.7749 30.4319C43.2488 33.9912 46.7585 37.5174 50.322 40.9869C54.1932 44.756 58.7667 45.7556 63.8206 43.8711C67.4435 42.5201 69.8163 39.8581 71.1066 36.0038C69.9914 36.0038 69.0465 36.0038 67.8405 36.004ZM45.3654 17.9413C45.7558 17.6906 46.1809 17.4808 46.5313 17.183C55.6945 9.39849 70.094 11.7717 76.1478 22.1588C77.3138 24.1595 78.0343 26.4198 78.9855 28.6184C80.35 28.6184 81.8678 28.6184 83.3905 28.6184C82.5441 20.7523 76.481 11.7114 66.2896 8.47371C56.5073 5.36595 46.3586 8.8299 41.0498 14.7197C42.4309 15.7632 43.8136 16.8079 45.3654 17.9413ZM31.0762 57.3163C39.0417 58.0885 47.1602 54.2372 50.4018 50.1987C48.7406 49.0402 47.0781 47.8808 45.3995 46.7102C45.1774 46.8971 44.9788 47.0643 44.7801 47.2315C39.3364 51.8112 33.1074 53.2827 26.3096 51.3346C19.2413 49.309 14.7096 44.5371 12.6434 37.448C12.4954 36.9401 12.1457 36.1568 11.797 36.1031C10.6742 35.93 9.50801 36.0386 8.33516 36.0386C9.96233 47.4551 19.0721 55.9923 31.0762 57.3163ZM70.0788 26.2195C65.4878 18.3433 55.5418 18.4058 50.5974 23.5106C51.4648 24.2867 52.487 24.9532 53.179 25.8692C54.9419 28.2028 57.1302 28.9706 60.049 28.7541C63.6757 28.485 67.3374 28.6896 71.1834 28.6896C70.7925 27.8038 70.4808 27.0976 70.0788 26.2195ZM25.2625 42.9917C30.3931 45.8818 37.0591 45.1455 40.2469 41.2275C38.6113 39.6214 36.9853 37.9804 35.296 36.4076C34.9982 36.1304 34.4362 36.0341 33.9949 36.0305C30.6352 36.0033 27.2752 36.0201 23.9153 36.0225C22.6277 36.0235 21.34 36.0227 19.8686 36.0227C20.8738 39.0717 22.5984 41.2727 25.2625 42.9917Z" fill="#F1F1F1"/>
<path d="M111.465 6.711H115.946V29.46H111.465V6.711ZM152.078 30.3872L134.831 14.8091L136.16 15.5509L136.252 29.46H131.709V5.81464H131.894L148.771 21.3309L147.781 20.8982L147.689 6.711H152.201V30.3872H152.078ZM167.951 6.711H182.169V11.0382H172.433V16.2H180.871V20.5273H172.433V29.46H167.951V6.711ZM196.375 6.711H200.857V29.46H196.375V6.711ZM236.988 30.3872L219.741 14.8091L221.07 15.5509L221.163 29.46H216.619V5.81464H216.804L233.681 21.3309L232.692 20.8982L232.599 6.711H237.112V30.3872H236.988ZM252.861 6.711H257.343V29.46H252.861V6.711ZM271.56 6.711H286.89V11.0382H281.358V29.46H276.876V11.0382H271.56V6.711ZM307.01 22.3818L298.634 6.711H304.167L310.039 18.5182L308.71 18.6109L314.49 6.711H320.023L311.492 22.3818V29.46H307.01V22.3818Z" fill="#F1F1F1"/>
<path d="M118.357 35.0005C120.232 35.0005 121.819 35.3199 123.117 35.9587C124.416 36.5769 125.405 37.463 126.085 38.6169C126.765 39.7502 127.105 41.0999 127.105 42.666C127.105 43.5932 126.96 44.5308 126.672 45.4787C126.404 46.4059 125.961 47.2508 125.343 48.0132C124.745 48.7756 123.931 49.3938 122.901 49.8677C121.891 50.3211 120.645 50.5477 119.161 50.5477H115.946V57.7495H111.465V35.0005H118.357ZM119.13 46.1896C119.81 46.1896 120.377 46.0762 120.83 45.8496C121.283 45.6023 121.634 45.3035 121.881 44.9532C122.149 44.5823 122.334 44.2011 122.437 43.8096C122.561 43.4181 122.623 43.0781 122.623 42.7896C122.623 42.5629 122.582 42.2641 122.499 41.8932C122.437 41.5017 122.293 41.1102 122.066 40.7187C121.84 40.3272 121.489 39.9975 121.016 39.7296C120.562 39.4617 119.944 39.3278 119.161 39.3278H115.946V46.1896H119.13ZM136.146 57.7495L146.408 34.1042H146.655L156.917 57.7495H151.724L145.172 41.1205L148.417 38.8951L140.566 57.7495H136.146ZM143.162 49.5277H149.993L151.57 53.2986H141.772L143.162 49.5277ZM172.919 50.6714L164.542 35.0005H170.075L175.948 46.8078L174.619 46.9005L180.399 35.0005H185.931L177.4 50.6714V57.7495H172.919V50.6714Z" fill="#F1F1F1"/>
</svg>
