<svg width="321" height="66" viewBox="0 0 321 66" fill="none" xmlns="http://www.w3.org/2000/svg">
<path d="M12.9735 24.6359C16.7848 17.1698 22.8317 13.4053 31.0923 13.2316C32.022 13.2121 32.601 12.9296 33.1875 12.2346C34.2765 10.9437 35.4876 9.75578 36.7843 8.38036C36.3044 8.26709 35.9583 8.15094 35.6032 8.10653C24.3768 6.70291 13.921 12.5615 9.29132 22.8815C8.97964 23.5762 8.6486 23.8733 7.86192 23.8525C5.72677 23.7962 3.58916 23.8332 1.30514 23.8332C2.29856 20.3141 3.83776 17.2141 5.8756 14.3651C14.5985 2.17043 30.1202 -2.44898 44.1263 2.91498C44.6999 3.13465 45.5085 3.11743 46.0862 2.89509C63.5856 -3.83987 83.0454 5.45331 88.7252 23.2911C90.0455 27.4376 90.5438 32.7544 89.9426 36.6196C86.4318 36.6196 82.8988 36.6663 79.3684 36.5922C78.2523 36.5688 77.8457 36.8876 77.5661 38.005C75.5104 46.2182 68.2584 52.2007 59.8172 52.646C58.4036 52.7205 57.3938 53.0835 56.4953 54.2367C55.6013 55.384 54.4086 56.2987 53.1672 57.4873C53.7309 57.6533 53.9932 57.7663 54.2661 57.8058C65.3629 59.4123 76.2521 53.4464 80.7966 43.2141C81.1814 42.3479 81.6104 42.0647 82.5217 42.0939C84.57 42.1596 86.6219 42.1145 89.021 42.1145C88.1673 44.125 87.5044 46.0017 86.6042 47.7567C79.0961 62.3943 61.5223 69.0212 46.1807 63.0869C45.5324 62.8362 44.6339 62.8375 43.9743 63.0693C32.5929 67.0697 21.917 65.7488 12.3854 58.3173C3.20065 51.1562 -0.695261 41.4535 0.100341 29.8553C0.108805 29.7319 0.173932 29.6124 0.263909 29.3301C2.70414 29.3301 5.18059 29.3344 7.65702 29.3283C8.8362 29.3253 10.293 29.7175 11.1138 29.1682C11.8844 28.6525 11.977 27.1302 12.3793 26.0551C12.5475 25.6057 12.7452 25.1674 12.9735 24.6359ZM67.0657 36.628C62.9147 36.6308 58.7628 36.5816 54.6133 36.6616C52.9027 36.6945 51.616 36.1111 50.4378 34.9069C46.9545 31.3466 43.4344 27.8212 39.8776 24.3342C34.8501 19.4055 27.2255 19.2846 22.291 24.0152C20.7912 25.4531 19.6957 27.1444 19.0661 29.3188C19.6487 29.3188 20.0724 29.3191 20.4962 29.3188C25.2152 29.3148 29.9349 29.3586 34.6527 29.2816C36.4001 29.253 37.7422 29.8006 38.9596 31.0478C42.4385 34.6122 45.9532 38.1436 49.5219 41.6181C53.3987 45.3927 57.9788 46.3937 63.04 44.5064C66.6681 43.1535 69.0443 40.4876 70.3365 36.6278C69.2197 36.6278 68.2734 36.6278 67.0657 36.628ZM44.5582 18.5391C44.949 18.288 45.3748 18.0779 45.7257 17.7797C54.9021 9.98394 69.3225 12.3606 75.385 22.7628C76.5527 24.7663 77.2743 27.0299 78.2268 29.2316C79.5932 29.2316 81.1133 29.2316 82.6382 29.2316C81.7906 21.3542 75.7187 12.3002 65.5125 9.05781C55.7161 5.94555 45.5527 9.41453 40.2363 15.3128C41.6194 16.3578 43.0041 17.4041 44.5582 18.5391ZM30.2482 57.9711C38.2253 58.7444 46.3556 54.8875 49.6018 50.8432C47.9382 49.6831 46.2733 48.5219 44.5923 47.3496C44.3699 47.5368 44.171 47.7043 43.972 47.8717C38.5205 52.458 32.2824 53.9317 25.4748 51.9807C18.3963 49.9522 13.858 45.1734 11.7888 38.0741C11.6406 37.5654 11.2904 36.781 10.9412 36.7272C9.81682 36.5538 8.64891 36.6626 7.47437 36.6626C9.10389 48.0956 18.2268 56.6452 30.2482 57.9711ZM69.3073 26.8293C64.7096 18.9416 54.7492 19.0043 49.7977 24.1165C50.6663 24.8937 51.69 25.5612 52.383 26.4785C54.1485 28.8155 56.3399 29.5844 59.263 29.3675C62.8949 29.0981 66.5619 29.3029 70.4135 29.3029C70.022 28.4159 69.7099 27.7087 69.3073 26.8293ZM24.4262 43.6258C29.5642 46.5201 36.2398 45.7827 39.4322 41.859C37.7942 40.2506 36.1659 38.6072 34.4741 37.0321C34.176 36.7545 33.6132 36.6581 33.1711 36.6545C29.8066 36.6272 26.4418 36.6441 23.077 36.6465C21.7875 36.6475 20.4981 36.6467 19.0245 36.6467C20.0311 39.7001 21.7582 41.9043 24.4262 43.6258Z" fill="#727476"/>
<path d="M110.671 6.96911H115.159V29.751H110.671V6.96911ZM151.343 30.6796L134.071 15.079L135.402 15.8218L135.495 29.751H130.944V6.07145H131.13L148.031 21.6102L147.04 21.1768L146.948 6.96911H151.467V30.6796H151.343ZM167.239 6.96911H181.477V11.3026H171.727V16.4719H180.177V20.8054H171.727V29.751H167.239V6.96911ZM195.704 6.96911H200.192V29.751H195.704V6.96911ZM236.376 30.6796L219.104 15.079L220.435 15.8218L220.528 29.751H215.977V6.07145H216.163L233.064 21.6102L232.073 21.1768L231.981 6.96911H236.5V30.6796H236.376ZM252.272 6.96911H256.76V29.751H252.272V6.96911ZM270.998 6.96911H286.351V11.3026H280.81V29.751H276.322V11.3026H270.998V6.96911ZM306.499 22.6626L298.111 6.96911H303.652L309.533 18.7934L308.202 18.8863L313.99 6.96911H319.531L310.988 22.6626V29.751H306.499V22.6626Z" fill="#231F20"/>
<path d="M117.574 35.2997C119.452 35.2997 121.041 35.6195 122.341 36.2592C123.641 36.8783 124.631 37.7656 125.312 38.9212C125.993 40.0562 126.334 41.4079 126.334 42.9762C126.334 43.9048 126.189 44.8437 125.9 45.793C125.632 46.7216 125.188 47.5676 124.569 48.3311C123.971 49.0947 123.156 49.7137 122.124 50.1884C121.113 50.6424 119.864 50.8693 118.379 50.8693H115.159V58.0815H110.671V35.2997H117.574ZM118.348 46.5049C119.029 46.5049 119.596 46.3914 120.05 46.1644C120.504 45.9168 120.855 45.6175 121.102 45.2667C121.371 44.8953 121.556 44.5135 121.66 44.1215C121.783 43.7294 121.845 43.3889 121.845 43.1C121.845 42.873 121.804 42.5738 121.722 42.2023C121.66 41.8103 121.515 41.4182 121.288 41.0261C121.061 40.634 120.71 40.3038 120.236 40.0356C119.782 39.7673 119.163 39.6332 118.379 39.6332H115.159V46.5049H118.348ZM135.388 58.0815L145.665 34.402H145.912L156.189 58.0815H150.989L144.427 41.4285L147.677 39.1998L139.815 58.0815H135.388ZM142.415 49.8479H149.255L150.834 53.6242H141.022L142.415 49.8479ZM172.214 50.9932L163.825 35.2997H169.366L175.247 47.124L173.916 47.2168L179.705 35.2997H185.245L176.702 50.9932V58.0815H172.214V50.9932Z" fill="#231F20"/>
</svg>
