<svg width="85" height="61" viewBox="0 0 85 61" fill="none" xmlns="http://www.w3.org/2000/svg">
<path d="M12.2265 22.5592C15.8182 15.5233 21.5168 11.9756 29.3014 11.8119C30.1776 11.7935 30.7233 11.5274 31.2759 10.8724C32.3022 9.65586 33.4436 8.53638 34.6655 7.24021C34.2133 7.13346 33.8871 7.024 33.5525 6.98216C22.9729 5.6594 13.1194 11.1805 8.75649 20.9059C8.46276 21.5606 8.1508 21.8405 7.40944 21.821C5.3973 21.7679 3.38284 21.8027 1.2304 21.8027C2.16659 18.4864 3.61711 15.565 5.53755 12.8802C13.7579 1.38806 28.3854 -2.9652 41.5846 2.08971C42.1251 2.29672 42.8871 2.28049 43.4315 2.07096C59.9227 -4.27597 78.2614 4.4818 83.614 21.2919C84.8583 25.1995 85.3278 30.2099 84.7613 33.8524C81.4528 33.8524 78.1233 33.8964 74.7962 33.8267C73.7445 33.8046 73.3613 34.105 73.0978 35.158C71.1606 42.898 64.3264 48.5358 56.3715 48.9555C55.0393 49.0258 54.0877 49.3678 53.2409 50.4545C52.3985 51.5358 51.2745 52.3977 50.1046 53.5179C50.6358 53.6744 50.883 53.7808 51.1402 53.818C61.5977 55.332 71.8595 49.7098 76.1422 40.0671C76.5048 39.2507 76.9091 38.9839 77.7679 39.0114C79.6982 39.0733 81.6319 39.0308 83.8927 39.0308C83.0882 40.9255 82.4635 42.694 81.6152 44.3479C74.5396 58.1422 57.9783 64.3873 43.5206 58.7949C42.9096 58.5586 42.0629 58.5598 41.4413 58.7783C30.7156 62.5482 20.6547 61.3034 11.6723 54.3001C3.01672 47.5516 -0.654745 38.4079 0.0950202 27.4779C0.102996 27.3616 0.164372 27.249 0.249165 26.983C2.54881 26.983 4.88259 26.987 7.21634 26.9812C8.32759 26.9785 9.70049 27.348 10.474 26.8304C11.2001 26.3444 11.2874 24.9098 11.6666 23.8966C11.8251 23.4731 12.0114 23.0601 12.2265 22.5592ZM63.2024 33.8604C59.2906 33.863 55.3778 33.8167 51.4674 33.892C49.8553 33.9231 48.6427 33.3733 47.5324 32.2384C44.2498 28.8832 40.9325 25.561 37.5806 22.2749C32.8427 17.6301 25.6574 17.5162 21.0073 21.9743C19.5938 23.3293 18.5615 24.9232 17.9682 26.9723C18.5171 26.9723 18.9165 26.9726 19.3158 26.9723C23.7629 26.9685 28.2108 27.0098 32.6567 26.9372C34.3035 26.9103 35.5683 27.4263 36.7155 28.6017C39.994 31.9608 43.3062 35.2887 46.6693 38.563C50.3228 42.1201 54.639 43.0634 59.4086 41.2849C62.8277 40.0099 65.067 37.4977 66.2847 33.8602C65.2323 33.8602 64.3405 33.8602 63.2024 33.8604ZM41.9915 16.8137C42.3599 16.577 42.7611 16.379 43.0918 16.0981C51.7395 8.7514 65.3291 10.9911 71.0423 20.794C72.1428 22.6821 72.8228 24.8153 73.7205 26.8901C75.0082 26.8901 76.4407 26.8901 77.8777 26.8901C77.0789 19.4666 71.3568 10.9342 61.7387 7.87863C52.5066 4.94568 42.9288 8.21479 37.9187 13.7733C39.2221 14.7581 40.527 15.744 41.9915 16.8137ZM28.506 53.9738C36.0235 54.7026 43.6854 51.0679 46.7446 47.2566C45.1769 46.1633 43.6078 45.0691 42.0237 43.9643C41.8141 44.1407 41.6266 44.2985 41.4391 44.4563C36.3017 48.7784 30.423 50.1671 24.0076 48.3286C17.3369 46.4169 13.0601 41.9135 11.1101 35.2231C10.9704 34.7438 10.6404 34.0046 10.3114 33.9539C9.25171 33.7905 8.15108 33.893 7.04421 33.893C8.57985 44.6673 17.1772 52.7243 28.506 53.9738ZM65.3148 24.6263C60.982 17.193 51.5955 17.252 46.9292 22.0697C47.7478 22.8022 48.7125 23.4312 49.3656 24.2956C51.0293 26.498 53.0945 27.2226 55.8492 27.0182C59.2718 26.7643 62.7276 26.9573 66.3572 26.9573C65.9883 26.1214 65.6942 25.4549 65.3148 24.6263ZM23.0194 40.455C27.8614 43.1826 34.1524 42.4876 37.1609 38.79C35.6173 37.2742 34.0828 35.7256 32.4885 34.2412C32.2075 33.9796 31.6771 33.8888 31.2605 33.8854C28.0899 33.8596 24.9189 33.8755 21.748 33.8778C20.5328 33.8787 19.3176 33.878 17.9289 33.878C18.8776 36.7554 20.5052 38.8327 23.0194 40.455Z" fill="#DB1F48"/>
</svg>
